<?xml version="1.0" encoding="UTF-8"?>
<svg id="OBJECTS" xmlns="http://www.w3.org/2000/svg" version="1.1" viewBox="0 0 500 500">
  <!-- Generator: Adobe Illustrator 29.6.1, SVG Export Plug-In . SVG Version: 2.1.1 Build 9)  -->
  <defs>
    <style>
      .st0 {
        fill: #fff;
      }

      .st1 {
        display: none;
      }
    </style>
  </defs>
  <g class="st1">
    <path d="M153.45,87.81c-14.3,0-25.94-11.64-25.94-25.94s11.64-25.94,25.94-25.94,25.94,11.64,25.94,25.94-11.64,25.94-25.94,25.94ZM153.45,39.68c-12.24,0-22.2,9.96-22.2,22.2s9.96,22.2,22.2,22.2,22.2-9.96,22.2-22.2-9.96-22.2-22.2-22.2Z"/>
    <path d="M255.37,84.56c-13.2,5.51-28.42-.75-33.93-13.95-5.51-13.2.75-28.42,13.95-33.93,6.26-2.61,13.27-2.66,19.54-.18,1.01.4,1.46,1.59.98,2.56h0c-.43.88-1.46,1.27-2.36.91-5.36-2.12-11.36-2.08-16.71.16-11.29,4.71-16.65,17.74-11.93,29.03,4.71,11.29,17.74,16.65,29.03,11.93l1.44,3.45v.02Z"/>
    <path d="M432.32,87.81c-14.3,0-25.94-11.64-25.94-25.94s11.64-25.94,25.94-25.94,25.94,11.64,25.94,25.94-11.64,25.94-25.94,25.94ZM432.32,39.68c-12.24,0-22.2,9.96-22.2,22.2s9.96,22.2,22.2,22.2,22.2-9.96,22.2-22.2-9.96-22.2-22.2-22.2Z"/>
    <path d="M38.02,138.71h-5.16c-.45,0-.73-.49-.51-.88l2.58-4.47,2.58-4.47c.23-.39.79-.39,1.01,0l2.58,4.47,2.58,4.47c.22.39-.06.88-.51.88h-5.16,0Z"/>
    <path d="M254.47,82.91l-1.99-4.76c-.17-.42.17-.86.61-.8l5.12.66,5.12.66c.45.06.66.58.39.93l-3.13,4.1-3.13,4.1c-.27.36-.83.29-1-.13l-1.99-4.76h0Z"/>
    <g>
      <path d="M347.41,40.55v5.16c0,.45-.49.73-.88.51l-4.47-2.58-4.47-2.58c-.39-.22-.39-.79,0-1.01l4.47-2.58,4.47-2.58c.39-.23.88.06.88.51v5.16h0Z"/>
      <path d="M347.41,42.33c8.94,3.49,15.08,12.61,14.03,22.98-1.04,10.28-9.27,18.61-19.54,19.75-13.37,1.49-24.73-8.98-24.73-22.05,0-9.03,5.42-16.81,13.18-20.28.66-.29,1.07-.97,1.07-1.69h0c0-1.36-1.41-2.26-2.66-1.7-9.71,4.36-16.27,14.53-15.23,26.06,1.13,12.61,11.52,22.7,24.16,23.5,15.06.95,27.61-11.03,27.61-25.89,0-11.49-7.52-21.26-17.89-24.65v3.97h0Z"/>
    </g>
    <path d="M197.57,123.97"/>
    <path d="M85.15,180.14h-47.03c-1.1,0-2-.9-2-2v-40.09c0-1.1.9-2,2-2h0c1.1,0,2,.9,2,2v36.09c0,1.1.9,2,2,2h39.03c1.1,0,2-.9,2-2v-42.09c0-1.1.9-2,2-2h0c1.1,0,2,.9,2,2v46.09c0,1.1-.9,2-2,2Z"/>
    <path d="M166.85,149.28v-5.16c0-.45.49-.73.88-.51l4.47,2.58,4.47,2.58c.39.22.39.79,0,1.01l-4.47,2.58-4.47,2.58c-.39.22-.88-.06-.88-.51v-5.16h0Z"/>
    <path d="M129.43,153.38c0-1.1.9-2,2-2h35.98c1,0,1.92-.68,2.08-1.66.2-1.25-.76-2.34-1.97-2.34h-40.09c-1.1,0-2,.9-2,2v21.51c0,1.1.9,2,2,2h0c1.1,0,2-.9,2-2v-17.51Z"/>
    <path d="M360.05,160.14v-5.16c0-.45.49-.73.88-.51l4.47,2.58,4.47,2.58c.39.22.39.79,0,1.01l-4.47,2.58-4.47,2.58c-.39.22-.88-.06-.88-.51v-5.16h0Z"/>
    <path d="M232.05,144.38c0-1.1.9-2,2-2h35.98c1,0,1.92-.68,2.08-1.66.2-1.25-.76-2.34-1.97-2.34h-40.09c-1.1,0-2,.9-2,2v21.51c0,1.1.9,2,2,2h0c1.1,0,2-.9,2-2v-17.51h0Z"/>
    <path d="M228.54,177.27v5.16c0,.45-.49.73-.88.51l-4.47-2.58-4.47-2.58c-.39-.22-.39-.79,0-1.01l4.47-2.58,4.47-2.58c.39-.22.88.06.88.51v5.16h0Z"/>
    <path d="M269.96,140.22v-5.16c0-.45.49-.73.88-.51l4.47,2.58,4.47,2.58c.39.22.39.79,0,1.01l-4.47,2.58-4.47,2.58c-.39.23-.88-.06-.88-.51v-5.16h0Z"/>
    <path d="M265.96,173.17c0,1.1-.9,2-2,2h-35.98c-1,0-1.92.68-2.08,1.66-.2,1.25.76,2.34,1.97,2.34h40.09c1.1,0,2-.9,2-2v-21.51c0-1.1-.9-2-2-2h0c-1.1,0-2,.9-2,2v17.51Z"/>
    <path d="M144.13,256.33h-23.17c-1.56,0-2.82-1.26-2.82-2.82h0c0-1.56,1.26-2.82,2.82-2.82h23.17c1.56,0,2.82,1.26,2.82,2.82h0c0,1.56-1.26,2.82-2.82,2.82Z"/>
    <g>
      <path d="M433.5,154.39v-5.16c0-.45.49-.73.88-.51l4.47,2.58,4.47,2.58c.39.23.39.79,0,1.01l-4.47,2.58-4.47,2.58c-.39.22-.88-.06-.88-.51v-5.16h0Z"/>
      <path d="M434.66,156.39h-37.23c-1.1,0-2-.9-2-2h0c0-1.1.9-2,2-2h37.23c1.1,0,2,.9,2,2h0c0,1.1-.9,2-2,2Z"/>
    </g>
    <g>
      <path d="M346.64,160.14v-5.16c0-.45.49-.73.88-.51l4.47,2.58,4.47,2.58c.39.22.39.79,0,1.01l-4.47,2.58-4.47,2.58c-.39.22-.88-.06-.88-.51v-5.16h0Z"/>
      <path d="M347.8,162.14h-37.23c-1.1,0-2-.9-2-2h0c0-1.1.9-2,2-2h37.23c1.1,0,2,.9,2,2h0c0,1.1-.9,2-2,2Z"/>
    </g>
    <g>
      <path d="M357.02,425.97v-6.49c0-.57.61-.92,1.1-.64l5.62,3.24,5.62,3.24c.49.28.49.99,0,1.27l-5.62,3.24-5.62,3.24c-.49.28-1.1-.07-1.1-.64v-6.49.03Z"/>
      <rect x="340.82" y="423.46" width="20.16" height="5.03" rx="2" ry="2"/>
    </g>
    <g>
      <path d="M339.08,437.15v6.49c0,.57-.61.92-1.1.64l-5.62-3.24-5.62-3.24c-.49-.28-.49-.99,0-1.27l5.62-3.24,5.62-3.24c.49-.28,1.1.07,1.1.64v6.49-.03Z"/>
      <rect x="335.12" y="434.64" width="20.16" height="5.03" rx="2" ry="2"/>
    </g>
    <g>
      <path d="M43.64,424.38h-5.16c-.45,0-.73-.49-.51-.88l2.58-4.47,2.58-4.47c.22-.39.79-.39,1.01,0l2.58,4.47,2.58,4.47c.22.39-.06.88-.51.88h-5.16,0Z"/>
      <path d="M45.64,423.22v37.23c0,1.1-.9,2-2,2h0c-1.1,0-2-.9-2-2v-37.23c0-1.1.9-2,2-2h0c1.1,0,2,.9,2,2Z"/>
    </g>
    <g>
      <path d="M60.92,411.07h-5.16c-.45,0-.73-.49-.51-.88l2.58-4.47,2.58-4.47c.22-.39.79-.39,1.01,0l2.58,4.47,2.58,4.47c.22.39-.06.88-.51.88h-5.16,0Z"/>
      <path d="M62.92,409.91v50.53c0,1.1-.9,2-2,2h0c-1.1,0-2-.9-2-2v-50.53c0-1.1.9-2,2-2h0c1.1,0,2,.9,2,2Z"/>
    </g>
    <path d="M78.21,424.38h-5.16c-.45,0-.73-.49-.51-.88l2.58-4.47,2.58-4.47c.22-.39.79-.39,1.01,0l2.58,4.47,2.58,4.47c.22.39-.06.88-.51.88h-5.16,0Z"/>
    <path d="M80.21,423.22v37.23c0,1.1-.9,2-2,2h0c-1.1,0-2-.9-2-2v-37.23c0-1.1.9-2,2-2h0c1.1,0,2,.9,2,2Z"/>
    <path d="M405.64,431.7v5.16c0,.45-.49.73-.88.51l-4.47-2.58-4.47-2.58c-.39-.23-.39-.79,0-1.01l4.47-2.58,4.47-2.58c.39-.22.88.06.88.51v5.16h0Z"/>
    <path d="M430.23,431.7v5.16c0,.45-.49.73-.88.51l-4.47-2.58-4.47-2.58c-.39-.23-.39-.79,0-1.01l4.47-2.58,4.47-2.58c.39-.22.88.06.88.51v5.16h0Z"/>
    <path d="M404.48,429.7h23.27c1.1,0,2,.9,2,2h0c0,1.1-.9,2-2,2h-23.27"/>
    <path d="M457.89,431.7v-5.16c0-.45.49-.73.88-.51l4.47,2.58,4.47,2.58c.39.22.39.79,0,1.01l-4.47,2.58-4.47,2.58c-.39.22-.88-.06-.88-.51v-5.16h0Z"/>
    <path d="M431.92,431.7v-5.16c0-.45.49-.73.88-.51l4.47,2.58,4.47,2.58c.39.22.39.79,0,1.01l-4.47,2.58-4.47,2.58c-.39.22-.88-.06-.88-.51v-5.16h0Z"/>
    <path d="M459.05,433.7h-23.27c-1.1,0-2-.9-2-2h0c0-1.1.9-2,2-2h23.27"/>
    <g>
      <g>
        <path d="M154.68,447.23h-7.17c-.62,0-1.02-.68-.7-1.22l3.58-6.21,3.58-6.21c.31-.54,1.09-.54,1.41,0l3.58,6.21,3.58,6.21c.31.54-.08,1.22-.7,1.22h-7.17,0Z"/>
        <path d="M156.68,447.09v16.23c0,1.1-.9,2-2,2h0c-1.1,0-2-.9-2-2v-16.23c0-1.1.9-2,2-2h0c1.1,0,2,.9,2,2Z"/>
      </g>
      <g>
        <path d="M154.68,412.18h7.17c.62,0,1.02.68.7,1.22l-3.58,6.21-3.58,6.21c-.31.54-1.09.54-1.41,0l-3.58-6.21-3.58-6.21c-.31-.54.08-1.22.7-1.22h7.17,0Z"/>
        <path d="M152.68,412.32v-16.23c0-1.1.9-2,2-2h0c1.1,0,2,.9,2,2v16.23c0,1.1-.9,2-2,2h0c-1.1,0-2-.9-2-2Z"/>
      </g>
    </g>
    <g>
      <g>
        <path d="M137.16,429.71v-7.17c0-.62.68-1.02,1.22-.7l6.21,3.58,6.21,3.58c.54.31.54,1.09,0,1.41l-6.21,3.58-6.21,3.58c-.54.31-1.22-.08-1.22-.7v-7.17h0Z"/>
        <path d="M137.3,431.71h-16.23c-1.1,0-2-.9-2-2h0c0-1.1.9-2,2-2h16.23c1.1,0,2,.9,2,2h0c0,1.1-.9,2-2,2Z"/>
      </g>
      <g>
        <path d="M172.21,429.71v7.17c0,.62-.68,1.02-1.22.7l-6.21-3.58-6.21-3.58c-.54-.31-.54-1.09,0-1.41l6.21-3.58,6.21-3.58c.54-.31,1.22.08,1.22.7v7.17h0Z"/>
        <path d="M172.07,427.71h16.23c1.1,0,2,.9,2,2h0c0,1.1-.9,2-2,2h-16.23c-1.1,0-2-.9-2-2h0c0-1.1.9-2,2-2Z"/>
      </g>
    </g>
    <g>
      <path d="M352.57,349.28v7.17c0,.62-.68,1.02-1.22.7l-6.21-3.58-6.21-3.58c-.54-.31-.54-1.09,0-1.41l6.21-3.58,6.21-3.58c.54-.31,1.22.08,1.22.7v7.17h0Z"/>
      <path d="M352.43,347.28h16.23c1.1,0,2,.9,2,2h0c0,1.1-.9,2-2,2h-16.23c-1.1,0-2-.9-2-2h0c0-1.1.9-2,2-2Z"/>
    </g>
    <g>
      <path d="M271.35,429.71v7.17c0,.62-.68,1.02-1.22.7l-6.21-3.58-6.21-3.58c-.54-.31-.54-1.09,0-1.41l6.21-3.58,6.21-3.58c.54-.31,1.22.08,1.22.7v7.17h0Z"/>
      <path d="M275.31,427.71h3.68c1.1,0,2,.9,2,2h0c0,1.1-.9,2-2,2h-3.68c-1.1,0-2-.9-2-2h0c0-1.1.9-2,2-2Z"/>
      <path d="M284.69,427.71h3.68c1.1,0,2,.9,2,2h0c0,1.1-.9,2-2,2h-3.68c-1.1,0-2-.9-2-2h0c0-1.1.9-2,2-2Z"/>
    </g>
    <g>
      <path d="M238.97,429.71v-7.17c0-.62.68-1.02,1.22-.7l6.21,3.58,6.21,3.58c.54.31.54,1.09,0,1.41l-6.21,3.58-6.21,3.58c-.54.31-1.22-.08-1.22-.7v-7.17h0Z"/>
      <path d="M235.01,431.71h-3.68c-1.1,0-2-.9-2-2h0c0-1.1.9-2,2-2h3.68c1.1,0,2,.9,2,2h0c0,1.1-.9,2-2,2Z"/>
      <path d="M225.63,431.71h-3.68c-1.1,0-2-.9-2-2h0c0-1.1.9-2,2-2h3.68c1.1,0,2,.9,2,2h0c0,1.1-.9,2-2,2Z"/>
    </g>
    <path d="M345.86,349.28v10.49c0,.91-.99,1.49-1.78,1.03l-9.08-5.24-9.08-5.24c-.79-.46-.79-1.6,0-2.06l9.08-5.24,9.08-5.24c.79-.46,1.78.11,1.78,1.03v10.49-.02Z"/>
    <path d="M354.59,349.28v9.24c0,.81-.87,1.31-1.57.91l-8-4.62-8-4.62c-.7-.4-.7-1.41,0-1.81l8-4.62,8-4.62c.7-.4,1.57.1,1.57.91v9.24h0Z"/>
    <g>
      <path d="M428.11,165.89v5.16c0,.45-.49.73-.88.51l-4.47-2.58-4.47-2.58c-.39-.23-.39-.79,0-1.01l4.47-2.58,4.47-2.58c.39-.22.88.06.88.51v5.16h0Z"/>
      <path d="M426.96,163.89h37.23c1.1,0,2,.9,2,2h0c0,1.1-.9,2-2,2h-37.23c-1.1,0-2-.9-2-2h0c0-1.1.9-2,2-2Z"/>
    </g>
    <g>
      <path d="M84.16,349.4v-5.16c0-.45.49-.73.88-.51l4.47,2.58,4.47,2.58c.39.23.39.79,0,1.01l-4.47,2.58-4.47,2.58c-.39.22-.88-.06-.88-.51v-5.16h0Z"/>
      <path d="M85.5,352.47c-3.36,0-5.2-1.48-6.53-2.55-1.12-.9-1.8-1.45-3.4-1.45s-2.28.55-3.4,1.45c-1.34,1.08-3.17,2.55-6.53,2.55s-5.19-1.48-6.53-2.55c-1.12-.9-1.79-1.45-3.39-1.45s-2.28.55-3.4,1.45c-1.34,1.08-3.17,2.55-6.53,2.55s-5.19-1.48-6.53-2.55c-1.12-.9-1.79-1.45-3.39-1.45-1.38,0-2.5-1.12-2.5-2.5s1.12-2.5,2.5-2.5c3.36,0,5.19,1.48,6.53,2.55,1.12.9,1.79,1.45,3.39,1.45s2.27-.54,3.39-1.45c1.34-1.08,3.17-2.55,6.53-2.55s5.19,1.48,6.53,2.55c1.12.9,1.79,1.45,3.39,1.45s2.28-.54,3.4-1.45c1.34-1.08,3.17-2.55,6.53-2.55s5.2,1.48,6.53,2.55c1.12.9,1.8,1.45,3.4,1.45,1.38,0,2.5,1.12,2.5,2.5s-1.12,2.5-2.5,2.5h.01Z"/>
    </g>
    <g>
      <g>
        <path d="M182.32,343.54v-5.16c0-.45.49-.73.88-.51l4.47,2.58,4.47,2.58c.39.23.39.79,0,1.01l-4.47,2.58-4.47,2.58c-.39.22-.88-.06-.88-.51v-5.16h0Z"/>
        <path d="M183.66,346.61c-3.36,0-5.2-1.48-6.53-2.55-1.12-.9-1.8-1.45-3.4-1.45s-2.28.54-3.4,1.45c-1.34,1.08-3.17,2.55-6.53,2.55s-5.19-1.48-6.53-2.55c-1.12-.9-1.79-1.45-3.39-1.45s-2.28.54-3.4,1.45c-1.34,1.08-3.17,2.55-6.53,2.55s-5.19-1.48-6.53-2.55c-1.12-.9-1.79-1.45-3.39-1.45-1.38,0-2.5-1.12-2.5-2.5s1.12-2.5,2.5-2.5c3.36,0,5.19,1.48,6.53,2.55,1.12.9,1.79,1.45,3.39,1.45s2.27-.54,3.39-1.45c1.34-1.08,3.17-2.55,6.53-2.55s5.19,1.48,6.53,2.55c1.12.9,1.79,1.45,3.39,1.45s2.28-.54,3.4-1.45c1.34-1.08,3.17-2.55,6.53-2.55s5.2,1.48,6.53,2.55c1.12.9,1.8,1.45,3.4,1.45,1.38,0,2.5,1.12,2.5,2.5s-1.12,2.5-2.5,2.5h0Z"/>
      </g>
      <g>
        <path d="M135.42,351.56v5.16c0,.45-.49.73-.88.51l-4.47-2.58-4.47-2.58c-.39-.23-.39-.79,0-1.01l4.47-2.58,4.47-2.58c.39-.22.88.06.88.51v5.16h0Z"/>
        <path d="M134.08,348.48c3.36,0,5.2,1.48,6.53,2.55,1.12.9,1.8,1.45,3.4,1.45s2.28-.54,3.4-1.45c1.34-1.08,3.17-2.55,6.53-2.55s5.19,1.48,6.53,2.55c1.12.9,1.79,1.45,3.39,1.45s2.28-.54,3.4-1.45c1.34-1.08,3.17-2.55,6.53-2.55s5.19,1.48,6.53,2.55c1.12.9,1.79,1.45,3.39,1.45,1.38,0,2.5,1.12,2.5,2.5s-1.12,2.5-2.5,2.5c-3.36,0-5.19-1.48-6.53-2.55-1.12-.9-1.79-1.45-3.39-1.45s-2.27.54-3.39,1.45c-1.34,1.08-3.17,2.55-6.53,2.55s-5.19-1.48-6.53-2.55c-1.12-.9-1.79-1.45-3.39-1.45s-2.28.54-3.4,1.45c-1.34,1.08-3.17,2.55-6.53,2.55s-5.2-1.48-6.53-2.55c-1.12-.9-1.8-1.45-3.4-1.45-1.38,0-2.5-1.12-2.5-2.5s1.12-2.5,2.5-2.5h0Z"/>
      </g>
    </g>
    <path d="M155.37,54.61h-3.35c-.56,0-.87.65-.51,1.09l2.67,3.26c.1.12,0,.3-.14.3h-10.14c-.37,0-.66.3-.66.66v3.92c0,.37.3.66.66.66h10.14c.16,0,.24.18.14.3l-2.67,3.26c-.36.43-.05,1.09.51,1.09h3.35c.2,0,.39-.09.51-.24l5.41-6.6c.2-.24.2-.6,0-.84l-5.41-6.6c-.13-.15-.31-.24-.51-.24v-.02Z"/>
    <g>
      <path d="M444.41,56.46h-1.98c-.42,0-.65.49-.38.81l1.98,2.42c.07.09,0,.22-.11.22h-7.55c-.27,0-.49.22-.49.49v2.92c0,.27.22.49.49.49h7.55c.12,0,.18.13.11.22l-1.98,2.42c-.26.32-.03.81.38.81h1.98c.15,0,.29-.07.38-.18l4.02-4.91c.15-.18.15-.44,0-.63l-4.02-4.91c-.09-.11-.23-.18-.38-.18h0Z"/>
      <path d="M420.24,67.28h1.98c.42,0,.65-.49.38-.81l-1.98-2.42c-.07-.09,0-.22.11-.22h7.55c.27,0,.49-.22.49-.49v-2.92c0-.27-.22-.49-.49-.49h-7.55c-.12,0-.18-.13-.11-.22l1.98-2.42c.26-.32.03-.81-.38-.81h-1.98c-.15,0-.29.07-.38.18l-4.02,4.91c-.15.18-.15.44,0,.63l4.02,4.91c.09.11.23.18.38.18h0Z"/>
    </g>
    <g>
      <path d="M426.92,49.79v1.98c0,.42.49.65.81.38l2.42-1.98c.09-.07.22,0,.22.11v7.55c0,.27.22.49.49.49h2.92c.27,0,.49-.22.49-.49v-7.55c0-.12.13-.18.22-.11l2.42,1.98c.32.26.81.03.81-.38v-1.98c0-.15-.07-.29-.18-.38l-4.91-4.02c-.18-.15-.44-.15-.63,0l-4.91,4.02c-.11.09-.18.23-.18.38h0Z"/>
      <path d="M437.73,73.96v-1.98c0-.42-.49-.65-.81-.38l-2.42,1.98c-.09.07-.22,0-.22-.11v-7.55c0-.27-.22-.49-.49-.49h-2.92c-.27,0-.49.22-.49.49v7.55c0,.12-.13.18-.22.11l-2.42-1.98c-.32-.26-.81-.03-.81.38v1.98c0,.15.07.29.18.38l4.91,4.02c.18.15.44.15.63,0l4.91-4.02c.11-.09.18-.23.18-.38h0Z"/>
    </g>
    <path d="M38.51,232.43h0c-2.35,0-3.65,2.74-2.16,4.56l11,13.43c.84,1.03.84,2.51,0,3.53l-11,13.43c-1.49,1.82-.2,4.56,2.16,4.56h0c.84,0,1.63-.38,2.16-1.02l13.89-16.96c.84-1.03.84-2.51,0-3.53l-13.89-16.96c-.53-.65-1.32-1.02-2.16-1.02v-.02Z"/>
    <path d="M49.24,232.43h0c-2.35,0-3.65,2.74-2.16,4.56l11,13.43c.84,1.03.84,2.51,0,3.53l-11,13.43c-1.49,1.82-.2,4.56,2.16,4.56h0c.84,0,1.63-.38,2.16-1.02l13.89-16.96c.84-1.03.84-2.51,0-3.53l-13.89-16.96c-.53-.65-1.32-1.02-2.16-1.02v-.02Z"/>
    <path d="M59.98,232.43h0c-2.35,0-3.65,2.74-2.16,4.56l11,13.43c.84,1.03.84,2.51,0,3.53l-11,13.43c-1.49,1.82-.2,4.56,2.16,4.56h0c.84,0,1.63-.38,2.16-1.02l13.89-16.96c.84-1.03.84-2.51,0-3.53l-13.89-16.96c-.53-.65-1.32-1.02-2.16-1.02v-.02Z"/>
    <path d="M411.45,328.73h0c-2.35,0-3.65,2.74-2.16,4.56l11,13.43c.84,1.03.84,2.51,0,3.53l-11,13.43c-1.49,1.82-.2,4.56,2.16,4.56h0c.84,0,1.63-.38,2.16-1.02l13.89-16.96c.84-1.03.84-2.51,0-3.53l-13.89-16.96c-.53-.65-1.32-1.02-2.16-1.02v-.02Z"/>
    <path d="M451.25,368.24h0c2.35,0,3.65-2.74,2.16-4.56l-11-13.43c-.84-1.03-.84-2.51,0-3.53l11-13.43c1.49-1.82.2-4.56-2.16-4.56h0c-.84,0-1.63.38-2.16,1.02l-13.89,16.96c-.84,1.03-.84,2.51,0,3.53l13.89,16.96c.53.65,1.32,1.02,2.16,1.02v.02Z"/>
    <path d="M448.01,271.94h0c2.35,0,3.65-2.74,2.16-4.56l-11-13.43c-.84-1.03-.84-2.51,0-3.53l11-13.43c1.49-1.82.2-4.56-2.16-4.56h0c-.84,0-1.63.38-2.16,1.02l-13.89,16.96c-.84,1.03-.84,2.51,0,3.53l13.89,16.96c.53.65,1.32,1.02,2.16,1.02v.02Z"/>
    <path d="M435.09,268.38h0c1.93,0,2.99-2.24,1.77-3.74l-9.02-11.01c-.69-.84-.69-2.06,0-2.9l9.02-11.01c1.22-1.49.16-3.74-1.77-3.74h0c-.69,0-1.34.31-1.77.84l-11.39,13.91c-.69.84-.69,2.06,0,2.9l11.39,13.91c.43.53,1.08.84,1.77.84Z"/>
    <path d="M423.34,263.65h0c1.37,0,2.12-1.59,1.25-2.65l-6.38-7.8c-.49-.6-.49-1.46,0-2.05l6.38-7.8c.87-1.06.11-2.65-1.25-2.65h0c-.49,0-.95.22-1.25.59l-8.07,9.85c-.49.6-.49,1.46,0,2.05l8.07,9.85c.31.38.77.59,1.25.59v.02Z"/>
    <path d="M414.94,260.36h0c.97,0,1.51-1.13.89-1.89l-4.55-5.56c-.35-.43-.35-1.04,0-1.46l4.55-5.56c.62-.75.08-1.89-.89-1.89h0c-.35,0-.67.16-.89.42l-5.75,7.02c-.35.43-.35,1.04,0,1.46l5.75,7.02c.22.27.55.42.89.42v.02Z"/>
    <path d="M134.27,233.76h0c-2.35,0-3.65,2.74-2.16,4.56l11,13.43c.84,1.03.84,2.51,0,3.53l-11,13.43c-1.49,1.82-.2,4.56,2.16,4.56h0c.84,0,1.63-.38,2.16-1.02l13.89-16.96c.84-1.03.84-2.51,0-3.53l-13.89-16.96c-.53-.65-1.32-1.02-2.16-1.02v-.02Z"/>
    <path d="M244.3,251.74l-13.89-16.96c-.53-.65-1.32-1.02-2.16-1.02h0c-2.35,0-3.65,2.74-2.16,4.56l10.13,12.38h-21.27c-1.56,0-2.82,1.26-2.82,2.82h0c0,1.56,1.26,2.82,2.82,2.82h21.27l-10.13,12.38c-1.49,1.82-.2,4.56,2.16,4.56h0c.84,0,1.63-.38,2.16-1.02l13.89-16.96c.84-1.03.84-2.51,0-3.53v-.03Z"/>
    <path d="M252.84,255.27l13.89,16.96c.53.65,1.32,1.02,2.16,1.02h0c2.35,0,3.65-2.74,2.16-4.56l-10.13-12.38h21.27c1.56,0,2.82-1.26,2.82-2.82h0c0-1.56-1.26-2.82-2.82-2.82h-21.27l10.13-12.38c1.49-1.82.2-4.56-2.16-4.56h0c-.84,0-1.63.38-2.16,1.02l-13.89,16.96c-.84,1.03-.84,2.51,0,3.53v.03Z"/>
    <path d="M320.06,255.27l13.89,16.96c.53.65,1.32,1.02,2.16,1.02h0c2.35,0,3.65-2.74,2.16-4.56l-10.13-12.38h21.27c1.56,0,2.82-1.26,2.82-2.82h0c0-1.56-1.26-2.82-2.82-2.82h-21.27l10.13-12.38c1.49-1.82.2-4.56-2.16-4.56h0c-.84,0-1.63.38-2.16,1.02l-13.89,16.96c-.84,1.03-.84,2.51,0,3.53v.03Z"/>
    <path d="M344.54,255.27l13.89,16.96c.53.65,1.32,1.02,2.16,1.02h0c2.35,0,3.65-2.74,2.16-4.56l-10.13-12.38h21.27c1.56,0,2.82-1.26,2.82-2.82h0c0-1.56-1.26-2.82-2.82-2.82h-21.27l10.13-12.38c1.49-1.82.2-4.56-2.16-4.56h0c-.84,0-1.63.38-2.16,1.02l-13.89,16.96c-.84,1.03-.84,2.51,0,3.53v.03Z"/>
    <path d="M145.01,233.76h0c-2.35,0-3.65,2.74-2.16,4.56l11,13.43c.84,1.03.84,2.51,0,3.53l-11,13.43c-1.49,1.82-.2,4.56,2.16,4.56h0c.84,0,1.63-.38,2.16-1.02l13.89-16.96c.84-1.03.84-2.51,0-3.53l-13.89-16.96c-.53-.65-1.32-1.02-2.16-1.02v-.02Z"/>
    <path d="M155.74,233.76h0c-2.35,0-3.65,2.74-2.16,4.56l11,13.43c.84,1.03.84,2.51,0,3.53l-11,13.43c-1.49,1.82-.2,4.56,2.16,4.56h0c.84,0,1.63-.38,2.16-1.02l13.89-16.96c.84-1.03.84-2.51,0-3.53l-13.89-16.96c-.53-.65-1.32-1.02-2.16-1.02v-.02Z"/>
    <path d="M244.97,337.47h-5.18c-1.21,0-1.88,1.41-1.11,2.35l4.82,5.89c.43.53.43,1.29,0,1.82l-4.82,5.89c-.77.94-.1,2.35,1.11,2.35h5.18c.43,0,.84-.19,1.11-.53l6.31-7.71c.43-.53.43-1.29,0-1.82l-6.31-7.71c-.27-.33-.68-.53-1.11-.53h0Z"/>
    <path d="M253.06,327.3h-3.93c-2.56,0-3.97,2.98-2.35,4.96l10.18,12.43c.92,1.12.92,2.73,0,3.85l-10.18,12.43c-1.62,1.98-.21,4.96,2.35,4.96h3.93c.91,0,1.77-.41,2.35-1.11l13.33-16.27c.92-1.12.92-2.73,0-3.85l-13.33-16.27c-.58-.7-1.44-1.11-2.35-1.11v-.02Z"/>
  </g>
  <g>
    <g>
      <path class="st0" d="M73.8,180.91c27.75-70.99,96.72-121.49,177.42-121.49s143.64,46.2,173.57,112.33c2.56,5.65,8.33,9.15,14.53,9.15h0c11.88,0,19.5-12.32,14.57-23.12C418.75,80.87,341.15,27.28,251.22,27.28c-98.69,0-182.55,64.55-211.69,153.63h34.27Z"/>
      <path class="st0" d="M428.64,319.09c-27.75,70.99-96.72,121.49-177.42,121.49s-143.64-46.2-173.57-112.33c-2.56-5.65-8.33-9.15-14.53-9.15h0c-11.88,0-19.5,12.32-14.57,23.12,35.13,76.91,112.73,130.5,202.66,130.5,98.69,0,182.55-64.55,211.7-153.63h-34.27Z"/>
    </g>
    <path class="st0" d="M55.84,180.91h44.23c3.91,0,6.35,4.23,4.4,7.61l-22.12,38.31-22.12,38.31c-1.95,3.38-6.84,3.38-8.79,0l-22.12-38.31-22.12-38.31c-1.95-3.38.49-7.61,4.4-7.61h44.24Z"/>
    <path class="st0" d="M444.12,319.09h-44.33c-3.86,0-6.28-4.18-4.35-7.53l22.17-38.39,22.17-38.39c1.93-3.35,6.76-3.35,8.69,0l22.17,38.39,22.17,38.39c1.93,3.35-.48,7.53-4.35,7.53h-44.34Z"/>
  </g>
</svg>