<?xml version="1.0" encoding="UTF-8"?>
<svg id="Layer_1" xmlns="http://www.w3.org/2000/svg" version="1.1" viewBox="0 0 325.26 325.26">
  <!-- Generator: Adobe Illustrator 29.6.1, SVG Export Plug-In . SVG Version: 2.1.1 Build 9)  -->
  <defs>
    <style>
      .st0 {
        fill: #2a4157;
      }

      .st1 {
        isolation: isolate;
        opacity: .7;
      }

      .st2 {
        fill: #222;
      }
    </style>
  </defs>
  <g>
    <path class="st2" d="M134.62,252.18c-64.82,0-117.56-52.74-117.56-117.56S69.8,17.06,134.62,17.06s117.56,52.74,117.56,117.56-52.74,117.56-117.56,117.56ZM134.62,28.1c-58.74,0-106.52,47.78-106.52,106.52s47.78,106.52,106.52,106.52,106.52-47.78,106.52-106.52S193.36,28.1,134.62,28.1Z"/>
    <path class="st2" d="M134.62,22.06c62.17,0,112.56,50.39,112.56,112.56h-1.04c0-61.59-49.93-111.52-111.52-111.52v-1.04M134.62,22.06v1.04c-61.59,0-111.52,49.93-111.52,111.52h-1.04c0-62.17,50.39-112.56,112.56-112.56M247.18,134.62h0M247.18,134.62c0,62.17-50.39,112.56-112.56,112.56v-1.04c61.59,0,111.52-49.93,111.52-111.52h1.04M23.1,134.62c0,61.59,49.93,111.52,111.52,111.52v1.04c-62.17,0-112.56-50.39-112.56-112.56h1.04M134.62,12.06c-32.74,0-63.52,12.75-86.66,35.9-23.15,23.15-35.9,53.93-35.9,86.66s12.75,63.52,35.9,86.66c23.15,23.15,53.93,35.9,86.66,35.9s63.52-12.75,86.66-35.9c23.09-23.09,35.83-53.78,35.89-86.43,0-.08,0-.16,0-.24s0-.16,0-.24c-.06-32.65-12.8-63.34-35.89-86.43-23.15-23.15-53.93-35.9-86.66-35.9h0ZM33.1,134.62c0-55.98,45.54-101.52,101.52-101.52s101.52,45.54,101.52,101.52-45.54,101.52-101.52,101.52-101.52-45.54-101.52-101.52h0ZM247.18,144.62h0,0ZM247.18,144.62h0,0Z"/>
  </g>
  <g class="st1">
    <path class="st0" d="M67.43,135.82c-2.74,0-5.03-1.99-5.49-4.6-.06-.32-.1-.65-.1-.98,0-9.03,1.75-17.83,5.21-26.17,0,0,0,0,0,0,3.45-8.34,8.43-15.8,14.82-22.19h.01c6.39-6.39,13.85-11.37,22.19-14.83.1-.04.2-.08.3-.11,8.25-3.38,16.95-5.09,25.88-5.09,3.08,0,5.58,2.5,5.58,5.58,0,2.77-2.03,5.07-4.67,5.51-.3.06-.6.08-.92.08-7.55,0-14.92,1.47-21.9,4.36-.13.05-.25.1-.38.14-6.75,2.85-12.8,6.91-18,12.06-.06.06-.12.13-.18.19-5.34,5.34-9.51,11.58-12.41,18.57-.03.07-.06.13-.09.2-2.8,6.83-4.24,14.02-4.28,21.4,0,.1,0,.2,0,.3,0,3.08-2.5,5.58-5.58,5.58Z"/>
    <path class="st0" d="M130.24,66.85v.58h-.01v.59c-8.17,0-16.26,1.61-23.81,4.74v-.02s0,0,0,0l-.22-.54h0s-.22-.52-.22-.52c7.69-3.19,15.94-4.83,24.26-4.83M130.24,66.85c.32,0,.58.26.58.58s-.26.58-.58.58v-1.16M105.98,71.67h0s0,0,0,0h0s0,0,0,0l.22.54.21.52c-7.54,3.13-14.4,7.71-20.18,13.48l-.4-.4h-.01l-.41-.41c5.89-5.88,12.88-10.55,20.57-13.74M105.98,71.68l.22.53-.22-.53M85.41,85.41l.41.41.41.41s0,0,0,0h0c-5.78,5.79-10.36,12.65-13.49,20.2l-.54-.22-.54-.22c3.18-7.69,7.85-14.68,13.74-20.57M85.82,85.82l-.41-.41.41.41M71.67,105.98l.54.22-.54-.22.54.22h0s.54.23.54.23c-3.13,7.55-4.74,15.64-4.74,23.81h-1.16c0-8.33,1.64-16.57,4.83-24.26M72.21,106.2h0M68.01,130.24h0M68.01,130.24c0,.32-.26.58-.58.58s-.58-.26-.58-.58h1.16M130.24,56.85c-9.54,0-18.84,1.82-27.66,5.42-.14.05-.29.11-.43.17-8.94,3.71-16.95,9.06-23.8,15.9,0,0,0,0-.01.01-6.85,6.85-12.2,14.85-15.89,23.79,0,0,0,.01,0,.02-3.71,8.94-5.59,18.39-5.59,28.08,0,.67.07,1.33.19,1.96.92,4.9,5.23,8.62,10.4,8.62,5.5,0,10.03-4.22,10.53-9.59.03-.33.05-.66.05-.99,0-.16,0-.31-.01-.46.06-6.63,1.36-13.1,3.86-19.25.04-.09.08-.19.12-.28,2.64-6.38,6.45-12.08,11.32-16.95.08-.08.16-.16.24-.25,4.68-4.62,10.12-8.27,16.18-10.86.17-.06.35-.13.52-.2,6.37-2.64,13.09-3.98,19.98-3.98.61,0,1.21-.05,1.79-.16,4.99-.85,8.8-5.2,8.8-10.43,0-5.83-4.74-10.57-10.56-10.58h-.02ZM68.01,140.24h0,0Z"/>
  </g>
  <g>
    <path class="st2" d="M302.67,308.2c-1.2,0-2.33-.38-3.28-1.08-.22-.16-.43-.34-.63-.53-.06-.06-.12-.13-.18-.19l-55.83-55.83c-.29-.29-.53-.6-.74-.93-.56-.88-.87-1.9-.87-2.97,0-1.48.57-2.86,1.62-3.91,1.04-1.04,2.43-1.62,3.9-1.62h0c1.08,0,2.11.31,2.99.88.33.2.64.44.92.73.09.09.17.18.25.27l55.75,55.75c.29.29.53.6.74.93.56.88.87,1.9.87,2.97,0,1.48-.57,2.86-1.62,3.91-1.04,1.04-2.43,1.62-3.9,1.62Z"/>
    <path class="st2" d="M246.67,246.14c.13,0,.26.05.36.15h0s-.37.37-.37.37l-.36.36c-.2-.2-.2-.53,0-.73.1-.1.23-.15.36-.15M247.04,246.28h0s0,.01,0,0h0M247.03,246.29l56.02,56.02-.37.37-.37.37-56.02-56.02h.01s0-.01,0-.01l.37-.37.36-.36M303.04,302.32c.2.2.2.53,0,.73-.1.1-.23.15-.37.15s-.26-.05-.37-.15l.36-.36.37-.37M302.31,303.05h0s0,0,0,0M246.67,236.14c-2.81,0-5.45,1.09-7.44,3.08-3.52,3.52-4.02,8.94-1.49,13,.41.67.9,1.31,1.48,1.89l55.64,55.64c.12.13.24.26.37.39.55.55,1.14,1.02,1.77,1.41,1.68,1.08,3.63,1.66,5.68,1.66,2.81,0,5.45-1.09,7.44-3.08,3.52-3.52,4.02-8.94,1.49-13-.41-.67-.9-1.3-1.48-1.88l-55.75-55.75c-.09-.1-.18-.19-.27-.28-.39-.39-.8-.73-1.23-1.04-1.79-1.31-3.94-2.02-6.2-2.02h0Z"/>
  </g>
</svg>