<?xml version="1.0" encoding="UTF-8"?>
<svg xmlns="http://www.w3.org/2000/svg" version="1.1" xmlns:xlink="http://www.w3.org/1999/xlink" viewBox="0 0 450 450">
  <!-- Generator: Adobe Illustrator 29.6.1, SVG Export Plug-In . SVG Version: 2.1.1 Build 9)  -->
  <defs>
    <style>
      .st0 {
        isolation: isolate;
      }

      .st1 {
        fill: #56beff;
        mix-blend-mode: multiply;
        opacity: .5;
      }

      .st2 {
        fill: url(#linear-gradient1);
        mix-blend-mode: screen;
        opacity: .8;
      }

      .st3 {
        fill: url(#linear-gradient);
      }

      .st4 {
        fill: #fff;
        mix-blend-mode: color-dodge;
      }
    </style>
    <linearGradient id="linear-gradient" x1="147.86" y1="109.61" x2="304.49" y2="380.9" gradientUnits="userSpaceOnUse">
      <stop offset="0" stop-color="#c2e8ff"/>
      <stop offset="1" stop-color="#38b3ff"/>
    </linearGradient>
    <linearGradient id="linear-gradient1" x1="232.82" y1="78.34" x2="232.82" y2="339.28" gradientUnits="userSpaceOnUse">
      <stop offset=".05" stop-color="#fff"/>
      <stop offset=".24" stop-color="silver"/>
      <stop offset=".55" stop-color="#595959"/>
      <stop offset=".76" stop-color="#191919"/>
      <stop offset=".87" stop-color="#000"/>
    </linearGradient>
  </defs>
  <g class="st0">
    <g id="Layer_2">
      <g>
        <path class="st3" d="M436.89,221.84c-5.05-28.26-30.66-50.13-62.34-52.3-6.19-55.26-58.96-98.43-123.15-98.43s-112.78,39.84-122.19,91.98c-10.91-5.48-23.18-8.64-36.22-8.64-39.28,0-72,28.02-79.31,65.16-2.04,7.52-3.2,15.23-3.2,23.12,0,75.19,96.04,136.14,214.52,136.14s214.52-60.95,214.52-136.14c0-7.12-.97-14.08-2.63-20.9Z"/>
        <path class="st2" d="M355.36,211.39c11.14-82.92-40.22-133.04-107.67-133.04-78.59,0-108.29,71.78-107.05,128.09-1.24-17.95-16.48-37.98-41.46-39.6-63.53-4.13-62.54,54.33-62.54,60.89,0,62.49,82.8,111.55,186.89,111.55s196.77-34.9,204.85-98.18c7.43-58.17-54.45-74.26-73.02-29.7Z"/>
        <path class="st4" d="M250.74,76.91c11.13.15,21.94,1.82,32,4.77,9.99,3.2,19.13,7.63,27.23,12.77,15.94,10.72,27.5,24.05,34.3,36.67,6.86,12.62,9.97,23.91,10.93,31.76.83,3.87.63,7,.88,9.05.13,2.06.19,3.15.19,3.15,0,0-.19-1.07-.55-3.12-.48-2.02-.59-5.09-1.8-8.83-1.69-7.6-5.75-18.31-13.2-29.89-7.4-11.6-19.15-23.49-34.46-32.9-7.8-4.49-16.43-8.32-25.78-11.1-9.42-2.52-19.43-3.94-29.76-4.09-10.37.14-20.43,1.44-29.9,3.78-9.44,2.51-18.14,6.2-26.04,10.48-15.58,8.98-27.39,20.8-34.82,32.37-7.55,11.52-11.55,22.23-13.55,29.76-1.19,3.73-1.52,6.78-2.04,8.78-.43,2.03-.66,3.09-.66,3.09,0,0,.11-1.09.31-3.14.3-2.04.31-5.15,1.14-9.02,1.27-7.79,4.32-19.06,11.29-31.63,6.85-12.59,18.52-25.92,34.79-36.2,8.23-4.93,17.45-9.2,27.52-12.11,10.1-2.74,20.89-4.28,31.97-4.42Z"/>
        <path class="st4" d="M89.4,163.99c20.1-.43,37.81,9.06,45.12,20.07,3.85,5.35,5.23,10.62,5.51,14.14.35,3.54-.13,5.46-.02,5.45-.1.02-.16-1.97-1.24-5.19-1.01-3.22-3.25-7.64-7.42-11.76-8.08-8.52-24.08-14.8-41.81-14.46-8.85.11-17.08,2.03-23.98,5.28-6.83,3.34-12.39,7.76-16.28,12.26-3.92,4.47-6.53,8.73-8.04,11.8-1.55,3.06-2.3,4.86-2.3,4.86,0,0,.24-1.91,1.09-5.32.82-3.42,2.55-8.3,5.94-13.81,3.35-5.5,8.8-11.35,16.29-15.93,3.78-2.19,8.02-4.06,12.61-5.36,4.61-1.18,9.51-2.01,14.52-2.03Z"/>
        <path class="st4" d="M390.71,184.79c7.49-.04,14.76,1.82,20.43,5.21,5.74,3.29,9.7,7.95,12.08,12.13,2.33,4.27,3.25,8.04,3.56,10.63.34,2.58.3,4,.3,4,0,0-.48-1.36-1.53-3.64-1.01-2.28-2.85-5.43-5.69-8.6-2.9-3.12-6.86-6.26-11.87-8.31-4.97-2.14-10.9-3.18-17.22-3.16-12.66-.02-23.72,5.05-29.41,11.29-5.9,6.24-6.08,12.6-6.3,12.43,0,0-.04-.36-.11-1.02-.04-.67-.25-1.69-.13-3,.03-2.61.7-6.6,3.2-10.84,2.47-4.2,6.62-8.69,12.36-11.83,5.68-3.25,12.81-5.2,20.32-5.28Z"/>
        <path class="st1" d="M229.85,362.28c53.03-.13,100.41-10.29,132.27-24.5,16.03-6.84,28.31-14.11,36.58-19.48,4.18-2.64,7.29-4.9,9.41-6.42,2.14-1.51,3.26-2.3,3.26-2.3,0,0-.96.98-2.8,2.84-1.83,1.87-4.55,4.64-8.3,7.93-7.41,6.66-18.78,15.83-34.45,24.81-30.96,18.49-80.59,33.53-135.77,33.62-27.49.42-53.8-2.33-77.17-7.54-11.7-2.52-22.59-5.95-32.62-9.46-9.96-3.75-19.07-7.6-27.06-11.78-16.08-8.15-27.98-16.54-35.88-22.61-4.01-2.97-6.92-5.53-8.93-7.2-2-1.69-3.05-2.57-3.05-2.57,0,0,1.19.69,3.46,2,2.27,1.29,5.54,3.32,9.93,5.61,8.66,4.73,21.41,11.19,37.79,17.22,8.14,3.12,17.29,5.87,27.12,8.57,9.91,2.45,20.51,4.88,31.85,6.54,22.62,3.49,47.85,5.13,74.37,4.72Z"/>
      </g>
    </g>
  </g>
</svg>